Coordinates
version=1
nRows=13
nColumns=30
inDegrees=yes

Units are S.I. units (second, meters, Newtons, ...)
Angles are in degrees.

endheader
time	floatyaw	floatroll	floatpitch	floatx	floaty	floatz	pro_sup_l	deviation_l	flexion_l	cmc_flexion_l	cmc_abduction_l	mp_flexion_l	ip_flexion_l	2mcp_flexion_l	2mcp_abduction_l	2pm_flexion_l	2md_flexion_l	3mcp_flexion_l	3mcp_abduction_l	3pm_flexion_l	3md_flexion_l	4mcp_flexion_l	4mcp_abduction_l	4pm_flexion_l	4md_flexion_l	5mcp_flexion_l	5mcp_abduction_l	5pm_flexion_l	5md_flexion_l
-0.995000	-2.172711	-3.701800	97.553456	-0.100728	-0.188516	-0.032759	85.974119	2.527917	-1.535625	11.817209	8.257284	-22.588997	-34.630595	39.691794	10.117910	46.853184	32.656926	23.087528	5.435427	45.897536	32.000953	12.029391	-4.651339	61.100812	42.031625	6.443276	-10.533481	61.120098	42.098126
-0.985000	-2.172711	-3.701800	97.553456	-0.100716	-0.188504	-0.032740	85.985905	2.530306	-1.542355	11.797727	8.235198	-22.604997	-34.633248	39.730379	10.108555	46.858822	32.656462	23.111379	5.431632	45.903979	32.005476	12.057569	-4.652875	61.106215	42.034813	6.451178	-10.508797	61.139955	42.092055
-0.975000	-2.172711	-3.701800	97.553456	-0.100703	-0.188489	-0.032724	85.997064	2.534584	-1.544908	11.784172	8.210914	-22.624593	-34.640853	39.768022	10.096722	46.869372	32.657188	23.130979	5.427176	45.904978	32.006955	12.080270	-4.656551	61.109721	42.037085	6.451338	-10.484659	61.152133	42.084672
-0.965000	-2.172711	-3.701800	97.553456	-0.100691	-0.188474	-0.032711	86.005477	2.537610	-1.544230	11.776716	8.190492	-22.643572	-34.651491	39.797023	10.084507	46.886485	32.660391	23.143587	5.422078	45.907166	32.009398	12.095130	-4.661555	61.111356	42.038566	6.446961	-10.464010	61.155017	42.075452
-0.955000	-2.172711	-3.701800	97.553456	-0.100681	-0.188461	-0.032697	86.010124	2.537298	-1.543068	11.774255	8.177602	-22.658358	-34.662585	39.813934	10.074575	46.910826	32.666970	23.150639	5.416510	45.916820	32.015949	12.103462	-4.666479	61.113239	42.040106	6.442145	-10.448346	61.152570	42.065750
-0.945000	-2.172711	-3.701800	97.553456	-0.100672	-0.188453	-0.032682	86.011017	2.533350	-1.544344	11.774303	8.171548	-22.668284	-34.672616	39.821529	10.069300	46.940181	32.676003	23.157813	5.410827	45.936166	32.026864	12.109633	-4.670199	61.118292	42.042841	6.439524	-10.436908	61.151154	42.057906
-0.935000	-2.172711	-3.701800	97.553456	-0.100663	-0.188451	-0.032669	86.008559	2.526897	-1.549375	11.773404	8.167894	-22.676175	-34.682159	39.827415	10.070060	46.968479	32.684099	23.172242	5.405584	45.961437	32.038971	12.118692	-4.672281	61.128244	42.047533	6.439423	-10.427485	61.154638	42.053553
-0.925000	-2.172711	-3.701800	97.553456	-0.100654	-0.188454	-0.032658	86.003083	2.519494	-1.557214	11.768104	8.161552	-22.686867	-34.693644	39.839735	10.076703	46.987749	32.686687	23.198089	5.401588	45.984366	32.047302	12.133626	-4.672705	61.142303	42.054086	6.441620	-10.418687	61.161573	42.052317
-0.915000	-2.172711	-3.701800	97.553456	-0.100647	-0.188460	-0.032650	85.995105	2.512349	-1.565577	11.756250	8.150422	-22.704481	-34.709976	39.862398	10.087243	46.992876	32.680926	23.233186	5.399809	45.996746	32.048173	12.153877	-4.671402	61.157421	42.061513	6.448044	-10.411813	61.166586	42.051866
-0.905000	-2.172711	-3.701800	97.553456	-0.100642	-0.188467	-0.032646	85.986073	2.506260	-1.572609	11.737924	8.136880	-22.730057	-34.732776	39.892852	10.098027	46.986201	32.668345	23.269322	5.400990	45.995432	32.041783	12.175998	-4.668190	61.169858	42.068350	6.463293	-10.410273	61.164940	42.049413
-0.895000	-2.172711	-3.701800	97.553456	-0.100637	-0.188475	-0.032643	85.978739	2.502037	-1.578184	11.715194	8.125811	-22.760969	-34.761244	39.923849	10.104639	46.978101	32.654993	23.296520	5.405084	45.984601	32.032560	12.195990	-4.663219	61.177067	42.073300	6.491665	-10.416586	61.156933	42.043776
-0.885000	-2.172711	-3.701800	97.553456	-0.100630	-0.188485	-0.032638	85.976399	2.500720	-1.583944	11.690615	8.120359	-22.792508	-34.792311	39.947966	10.103462	46.982082	32.648526	23.308882	5.410939	45.973924	32.026972	12.211814	-4.657435	61.179060	42.075926	6.532961	-10.429483	61.149070	42.036650
-0.875000	-2.172711	-3.701800	97.553456	-0.100620	-0.188496	-0.032629	85.981251	2.503222	-1.592253	11.665486	8.118337	-22.820517	-34.821993	39.961881	10.093305	47.007202	32.653940	23.308282	5.416625	45.973915	32.030276	12.224596	-4.652512	61.179015	42.077197	6.580827	-10.443759	61.151274	42.032151
